<?xml version="1.0" encoding="utf-8"?>
<!-- Generator: Adobe Illustrator 26.3.1, SVG Export Plug-In . SVG Version: 6.00 Build 0)  -->
<svg version="1.1" id="Layer_1" xmlns="http://www.w3.org/2000/svg" xmlns:xlink="http://www.w3.org/1999/xlink" x="0px" y="0px"
	 viewBox="0 0 740.7 129.7" style="enable-background:new 0 0 740.7 129.7;" xml:space="preserve">
<style type="text/css">
	.st0{fill:#0C0B0B;}
	.st1{fill:#FFFFFF;}
</style>
<g>
	<path class="st0" d="M61.5,37.3c-2,0-3.1,2-3.1,3.9v0.2c0,2.3,1.5,4.2,3.3,4.2c2,0,3.1-2,3.1-3.9v-0.2
		C64.8,39.1,63.4,37.3,61.5,37.3z M22.8,118.9c-6.6,0-12-5.4-12-12V89.1c0-6.6,5.4-12,12-12h16c-13-7.3-21.1-20.7-21.1-35.4v-0.2
		C17.7,18.2,37.1,0,61.7,0c24.6,0,43.8,18.1,43.8,41.2v0.2c0,14.8-8.3,28.4-21.4,35.7h16.3c6.6,0,12,5.4,12,12v17.8
		c0,6.6-5.4,12-12,12H22.8z"/>
	<path class="st0" d="M59.7,39.1c-2,0-3.1,2-3.1,3.9v0.2c0,2.3,1.5,4.2,3.3,4.2c2,0,3.1-2,3.1-3.9v-0.2C63,40.9,61.6,39.1,59.7,39.1
		z M21,120.7c-6.6,0-12-5.4-12-12V90.9c0-6.6,5.4-12,12-12h16c-13-7.3-21.1-20.7-21.1-35.4v-0.2c0-23.2,19.3-41.4,44-41.4
		c24.6,0,43.8,18.1,43.8,41.2v0.2c0,14.8-8.3,28.4-21.4,35.7h16.3c6.6,0,12,5.4,12,12v17.8c0,6.6-5.4,12-12,12H21z"/>
	<path class="st0" d="M57.9,40.9c-2,0-3.1,2-3.1,3.9V45c0,2.3,1.5,4.2,3.3,4.2c2,0,3.1-2,3.1-3.9V45C61.2,42.7,59.8,40.9,57.9,40.9z
		 M19.2,122.5c-6.6,0-12-5.4-12-12V92.7c0-6.6,5.4-12,12-12h16c-13-7.3-21.1-20.7-21.1-35.4V45c0-23.2,19.3-41.4,44-41.4
		c24.6,0,43.8,18.1,43.8,41.2V45c0,14.8-8.3,28.4-21.4,35.7h16.3c6.6,0,12,5.4,12,12v17.8c0,6.6-5.4,12-12,12H19.2z"/>
	<path class="st0" d="M56.1,42.7c-2,0-3.1,2-3.1,3.9v0.2c0,2.3,1.5,4.2,3.3,4.2c2,0,3.1-2,3.1-3.9v-0.2C59.4,44.5,58,42.7,56.1,42.7
		z M17.4,124.3c-6.6,0-12-5.4-12-12V94.5c0-6.6,5.4-12,12-12h16c-13-7.3-21.1-20.7-21.1-35.4v-0.2c0-23.2,19.3-41.4,44-41.4
		c24.6,0,43.8,18.1,43.8,41.2v0.2c0,14.8-8.3,28.4-21.4,35.7H95c6.6,0,12,5.4,12,12v17.8c0,6.6-5.4,12-12,12H17.4z"/>
	<path class="st0" d="M54.3,44.5c-2,0-3.1,2-3.1,3.9v0.2c0,2.3,1.5,4.2,3.3,4.2c2,0,3.1-2,3.1-3.9v-0.2
		C57.6,46.3,56.2,44.5,54.3,44.5z M15.6,126.1c-6.6,0-12-5.4-12-12V96.3c0-6.6,5.4-12,12-12h16c-13-7.3-21.1-20.7-21.1-35.4v-0.2
		c0-23.2,19.3-41.4,44-41.4c24.6,0,43.8,18.1,43.8,41.2v0.2c0,14.8-8.3,28.4-21.4,35.7h16.3c6.6,0,12,5.4,12,12v17.8
		c0,6.6-5.4,12-12,12H15.6z"/>
	<path class="st0" d="M52.5,46.3c-2,0-3.1,2-3.1,3.9v0.2c0,2.3,1.5,4.2,3.3,4.2c2,0,3.1-2,3.1-3.9v-0.2
		C55.8,48.1,54.4,46.3,52.5,46.3z M13.8,127.9c-6.6,0-12-5.4-12-12V98.1c0-6.6,5.4-12,12-12h16c-13-7.3-21.1-20.7-21.1-35.4v-0.2
		C8.7,27.2,28,9,52.7,9c24.6,0,43.8,18.1,43.8,41.2v0.2c0,14.8-8.3,28.4-21.4,35.7h16.3c6.6,0,12,5.4,12,12v17.8c0,6.6-5.4,12-12,12
		H13.8z"/>
	<path class="st0" d="M50.7,48.1c-2,0-3.1,2-3.1,3.9v0.2c0,2.3,1.5,4.2,3.3,4.2c2,0,3.1-2,3.1-3.9v-0.2C54,49.9,52.6,48.1,50.7,48.1
		z M12,129.7c-6.6,0-12-5.4-12-12V99.9c0-6.6,5.4-12,12-12h16c-13-7.3-21.1-20.7-21.1-35.4v-0.2c0-23.2,19.3-41.4,44-41.4
		c24.6,0,43.8,18.1,43.8,41.2v0.2c0,14.8-8.3,28.4-21.4,35.7h16.3c6.6,0,12,5.4,12,12v17.8c0,6.6-5.4,12-12,12H12z"/>
</g>
<g>
	<path class="st0" d="M696,68.2c-2.4,0-3.4,2.2-3.4,4.3v0.2c0,2.1,1.1,4.3,3.4,4.3c2.4,0,3.4-2.2,3.4-4.3v-0.2
		C699.5,70.4,698.3,68.2,696,68.2z M515.3,68.4c-2,0-3.1,2-3.1,3.9v0.2c0,2.3,1.5,4.2,3.3,4.2c2,0,3.1-2,3.1-3.9v-0.2
		C518.6,70.3,517.1,68.4,515.3,68.4z M397.1,68.1v-1.6l-0.5,0.7L397.1,68.1z M302.3,68.4c-2,0-3.1,2-3.1,3.9v0.2
		c0,2.3,1.5,4.2,3.3,4.2c2,0,3.1-2,3.1-3.9v-0.2C305.7,70.3,304.2,68.4,302.3,68.4z M687,114c-17.6,0-31.4-13.4-34.6-32.3
		c-0.4,1.7-0.7,4-0.7,6.8v13.7c0,5.6-4.6,10.2-10.2,10.2h-51.1c-2.1,0-4.1-0.7-5.7-1.9c-4.5,2.3-9.5,3.5-15,3.5
		c-10.5,0-19-4.2-23.9-11.3c-8,7.1-18.8,11.3-30.4,11.3c-12.7,0-24.3-4.8-32.4-13.1c-6.8,7.4-18,11.6-32.2,11.6h-40.3
		c-1.7,0-3.3-0.3-4.9-0.9c-1.4,0.6-3,0.9-4.6,0.9h-18.4c-4.5,0-8.5-2.5-10.6-6.4l-0.5-0.9c-1.8,4.3-6.1,7.3-11,7.3h-17.8
		c-5.3,0-9.8-3.5-11.4-8.2c-7.7,6.2-17.8,9.8-28.8,9.8c-14.2,0-26.9-6.1-34.9-16.1c-8.1,10-20.9,16.1-35,16.1
		c-12.7,0-24.3-4.8-32.4-13.1c-6.8,7.4-18,11.6-32.2,11.6h-40.3c-7.3,0-13.2-5.9-13.2-13.2V27.6c0-7.3,5.9-13.2,13.2-13.2h40.8
		c13.1,0,22.3,3.1,28.9,9.7c4.4,4.4,6.9,10.1,7.2,16.6c7.6-5.9,17.5-9.5,28.2-9.5c14.2,0,26.9,6.1,34.9,16.1
		c8.1-10,20.9-16.1,35-16.1c10.7,0,20.4,3.4,27.9,9.2V22.8c0-6.6,5.4-12,12-12h17.8c6.6,0,12,5.4,12,12v13.9c2.3-2.5,5.5-4,8.9-4
		h15.9v-5.1c0-7.3,5.9-13.2,13.2-13.2h40.8c13.1,0,22.3,3.1,28.9,9.7c4.4,4.4,6.9,10.1,7.2,16.6c7.6-5.9,17.5-9.5,28.2-9.5
		c12.6,0,23.9,4.8,31.8,12.6c0.8-3.7,3.5-6.8,7.3-8.1c8.2-2.7,16.8-4,26.5-4c13,0,22.4,2.5,29.5,7.8c1.4-3.9,5.2-6.7,9.6-6.7h21.3
		c2.9,0,5.5,1.2,7.3,3.1c3.5-2.3,7.6-3.6,12.2-4c0.3,0,0.5,0,0.8,0c3.3,0,6.3,1.6,8.2,4.1c5-3.1,10.7-4.7,16.8-4.7
		c4.4,0,8.4,0.7,12.1,2.1V20.5c0-5.4,4.4-9.7,9.7-9.7h22.3c5.4,0,9.7,4.4,9.7,9.7v82.2c0,5.4-4.4,9.7-9.7,9.7h-22.3
		c-2.4,0-4.6-0.9-6.3-2.4C697.7,112.7,692.8,114,687,114z M232.4,68.4c-2,0-3.1,2-3.1,3.9v0.2c0,2.3,1.5,4.2,3.3,4.2
		c2,0,3.1-2,3.1-3.9v-0.2C235.7,70.3,234.2,68.4,232.4,68.4z"/>
	<path class="st0" d="M695.1,69.1c-2.4,0-3.4,2.2-3.4,4.3v0.2c0,2.1,1.1,4.3,3.4,4.3s3.4-2.2,3.4-4.3v-0.2
		C698.5,71.4,697.3,69.1,695.1,69.1z M514.3,69.4c-2,0-3.1,2-3.1,3.9v0.2c0,2.3,1.5,4.2,3.3,4.2c2,0,3.1-2,3.1-3.9v-0.2
		C517.6,71.3,516.1,69.4,514.3,69.4z M396.2,69.1v-1.6l-0.5,0.7L396.2,69.1z M301.4,69.4c-2,0-3.1,2-3.1,3.9v0.2
		c0,2.3,1.5,4.2,3.3,4.2c2,0,3.1-2,3.1-3.9v-0.2C304.7,71.3,303.2,69.4,301.4,69.4z M686,115c-17.6,0-31.4-13.4-34.6-32.3
		c-0.4,1.7-0.7,4-0.7,6.8v13.7c0,5.6-4.6,10.2-10.2,10.2h-51.1c-2.1,0-4.1-0.7-5.7-1.9c-4.5,2.3-9.5,3.5-15,3.5
		c-10.5,0-19-4.2-23.9-11.3c-8,7.1-18.8,11.3-30.4,11.3c-12.7,0-24.3-4.8-32.4-13.1c-6.8,7.4-18,11.6-32.2,11.6h-40.3
		c-1.7,0-3.3-0.3-4.9-0.9c-1.4,0.6-3,0.9-4.6,0.9h-18.4c-4.5,0-8.5-2.5-10.6-6.4l-0.5-0.9c-1.8,4.3-6.1,7.3-11,7.3h-17.8
		c-5.3,0-9.8-3.5-11.4-8.2c-7.7,6.2-17.8,9.8-28.8,9.8c-14.2,0-26.9-6.1-34.9-16.1c-8.1,10-20.9,16.1-35,16.1
		c-12.7,0-24.3-4.8-32.4-13.1c-6.8,7.4-18,11.6-32.2,11.6h-40.3c-7.3,0-13.2-5.9-13.2-13.2V28.6c0-7.3,5.9-13.2,13.2-13.2h40.8
		c13.1,0,22.3,3.1,28.9,9.7c4.4,4.4,6.9,10.1,7.2,16.6c7.6-5.9,17.5-9.5,28.2-9.5c14.2,0,26.9,6.1,34.9,16.1
		c8.1-10,20.9-16.1,35-16.1c10.7,0,20.4,3.4,27.9,9.2V23.8c0-6.6,5.4-12,12-12h17.8c6.6,0,12,5.4,12,12v13.9c2.3-2.5,5.5-4,8.9-4
		h15.9v-5.1c0-7.3,5.9-13.2,13.2-13.2h40.8c13.1,0,22.3,3.1,28.9,9.7c4.4,4.4,6.9,10.1,7.2,16.6c7.6-5.9,17.5-9.5,28.2-9.5
		c12.6,0,23.9,4.8,31.8,12.6c0.8-3.7,3.5-6.8,7.3-8.1c8.2-2.7,16.8-4,26.5-4c13,0,22.4,2.5,29.5,7.8c1.4-3.9,5.2-6.7,9.6-6.7h21.3
		c2.9,0,5.5,1.2,7.3,3.1c3.5-2.3,7.6-3.6,12.2-4c0.3,0,0.5,0,0.8,0c3.3,0,6.3,1.6,8.2,4.1c5-3.1,10.7-4.7,16.8-4.7
		c4.4,0,8.4,0.7,12.1,2.1V21.5c0-5.4,4.4-9.7,9.7-9.7h22.3c5.4,0,9.7,4.4,9.7,9.7v82.2c0,5.4-4.4,9.7-9.7,9.7h-22.3
		c-2.4,0-4.6-0.9-6.3-2.4C696.7,113.7,691.8,115,686,115z M231.4,69.4c-2,0-3.1,2-3.1,3.9v0.2c0,2.3,1.5,4.2,3.3,4.2
		c2,0,3.1-2,3.1-3.9v-0.2C234.7,71.3,233.2,69.4,231.4,69.4z"/>
	<path class="st0" d="M694.1,70.1c-2.4,0-3.4,2.2-3.4,4.3v0.2c0,2.1,1.1,4.3,3.4,4.3s3.4-2.2,3.4-4.3v-0.2
		C697.5,72.3,696.3,70.1,694.1,70.1z M513.3,70.4c-2,0-3.1,2-3.1,3.9v0.2c0,2.3,1.5,4.2,3.3,4.2c2,0,3.1-2,3.1-3.9v-0.2
		C516.6,72.2,515.1,70.4,513.3,70.4z M395.2,70.1v-1.6l-0.5,0.7L395.2,70.1z M300.4,70.4c-2,0-3.1,2-3.1,3.9v0.2
		c0,2.3,1.5,4.2,3.3,4.2c2,0,3.1-2,3.1-3.9v-0.2C303.7,72.2,302.2,70.4,300.4,70.4z M685,115.9c-17.6,0-31.4-13.4-34.6-32.3
		c-0.4,1.7-0.7,4-0.7,6.8v13.7c0,5.6-4.6,10.2-10.2,10.2h-51.1c-2.1,0-4.1-0.7-5.7-1.9c-4.5,2.3-9.5,3.5-15,3.5
		c-10.5,0-19-4.2-23.9-11.3c-8,7.1-18.8,11.3-30.4,11.3c-12.7,0-24.3-4.8-32.4-13.1c-6.8,7.4-18,11.6-32.2,11.6h-40.3
		c-1.7,0-3.3-0.3-4.9-0.9c-1.4,0.6-3,0.9-4.6,0.9h-18.4c-4.5,0-8.5-2.5-10.6-6.4l-0.5-0.9c-1.8,4.3-6.1,7.3-11,7.3h-17.8
		c-5.3,0-9.8-3.5-11.4-8.2c-7.7,6.2-17.8,9.8-28.8,9.8c-14.2,0-26.9-6.1-34.9-16.1c-8.1,10-20.9,16.1-35,16.1
		c-12.7,0-24.3-4.8-32.4-13.1c-6.8,7.4-18,11.6-32.2,11.6h-40.3c-7.3,0-13.2-5.9-13.2-13.2V29.6c0-7.3,5.9-13.2,13.2-13.2h40.8
		c13.1,0,22.3,3.1,28.9,9.7c4.4,4.4,6.9,10.1,7.2,16.6c7.6-5.9,17.5-9.5,28.2-9.5c14.2,0,26.9,6.1,34.9,16.1
		c8.1-10,20.9-16.1,35-16.1c10.7,0,20.4,3.4,27.9,9.2V24.8c0-6.6,5.4-12,12-12h17.8c6.6,0,12,5.4,12,12v13.9c2.3-2.5,5.5-4,8.9-4
		h15.9v-5.1c0-7.3,5.9-13.2,13.2-13.2h40.8c13.1,0,22.3,3.1,28.9,9.7c4.4,4.4,6.9,10.1,7.2,16.6c7.6-5.9,17.5-9.5,28.2-9.5
		c12.6,0,23.9,4.8,31.8,12.6c0.8-3.7,3.5-6.8,7.3-8.1c8.2-2.7,16.8-4,26.5-4c13,0,22.4,2.5,29.5,7.8c1.4-3.9,5.2-6.7,9.6-6.7h21.3
		c2.9,0,5.5,1.2,7.3,3.1c3.5-2.3,7.6-3.6,12.2-4c0.3,0,0.5,0,0.8,0c3.3,0,6.3,1.6,8.2,4.1c5-3.1,10.7-4.7,16.8-4.7
		c4.4,0,8.4,0.7,12.1,2.1V22.5c0-5.4,4.4-9.7,9.7-9.7H729c5.4,0,9.7,4.4,9.7,9.7v82.2c0,5.4-4.4,9.7-9.7,9.7h-22.3
		c-2.4,0-4.6-0.9-6.3-2.4C695.8,114.7,690.8,115.9,685,115.9z M230.4,70.4c-2,0-3.1,2-3.1,3.9v0.2c0,2.3,1.5,4.2,3.3,4.2
		c2,0,3.1-2,3.1-3.9v-0.2C233.7,72.2,232.3,70.4,230.4,70.4z"/>
	<path class="st0" d="M693.1,71.1c-2.4,0-3.4,2.2-3.4,4.3v0.2c0,2.1,1.1,4.3,3.4,4.3s3.4-2.2,3.4-4.3v-0.2
		C696.5,73.3,695.3,71.1,693.1,71.1z M512.3,71.4c-2,0-3.1,2-3.1,3.9v0.2c0,2.3,1.5,4.2,3.3,4.2c2,0,3.1-2,3.1-3.9v-0.2
		C515.7,73.2,514.2,71.4,512.3,71.4z M394.2,71.1v-1.6l-0.5,0.7L394.2,71.1z M299.4,71.4c-2,0-3.1,2-3.1,3.9v0.2
		c0,2.3,1.5,4.2,3.3,4.2c2,0,3.1-2,3.1-3.9v-0.2C302.7,73.2,301.2,71.4,299.4,71.4z M684,116.9c-17.6,0-31.4-13.4-34.6-32.3
		c-0.4,1.7-0.7,4-0.7,6.8v13.7c0,5.6-4.6,10.2-10.2,10.2h-51.1c-2.1,0-4.1-0.7-5.7-1.9c-4.5,2.3-9.5,3.5-15,3.5
		c-10.5,0-19-4.2-23.9-11.3c-8,7.1-18.8,11.3-30.4,11.3c-12.7,0-24.3-4.8-32.4-13.1c-6.8,7.4-18,11.6-32.2,11.6h-40.3
		c-1.7,0-3.3-0.3-4.9-0.9c-1.4,0.6-3,0.9-4.6,0.9h-18.4c-4.5,0-8.5-2.5-10.6-6.4l-0.5-0.9c-1.8,4.3-6.1,7.3-11,7.3h-17.8
		c-5.3,0-9.8-3.5-11.4-8.2c-7.7,6.2-17.8,9.8-28.8,9.8c-14.2,0-26.9-6.1-34.9-16.1c-8.1,10-20.9,16.1-35,16.1
		c-12.7,0-24.3-4.8-32.4-13.1c-6.8,7.4-18,11.6-32.2,11.6h-40.3c-7.3,0-13.2-5.9-13.2-13.2V30.5c0-7.3,5.9-13.2,13.2-13.2h40.8
		c13.1,0,22.3,3.1,28.9,9.7c4.4,4.4,6.9,10.1,7.2,16.6c7.6-5.9,17.5-9.5,28.2-9.5c14.2,0,26.9,6.1,34.9,16.1
		c8.1-10,20.9-16.1,35-16.1c10.7,0,20.4,3.4,27.9,9.2V25.8c0-6.6,5.4-12,12-12h17.8c6.6,0,12,5.4,12,12v13.9c2.3-2.5,5.5-4,8.9-4
		h15.9v-5.1c0-7.3,5.9-13.2,13.2-13.2h40.8c13.1,0,22.3,3.1,28.9,9.7c4.4,4.4,6.9,10.1,7.2,16.6c7.6-5.9,17.5-9.5,28.2-9.5
		c12.6,0,23.9,4.8,31.8,12.6c0.8-3.7,3.5-6.8,7.3-8.1c8.2-2.7,16.8-4,26.5-4c13,0,22.4,2.5,29.5,7.8c1.4-3.9,5.2-6.7,9.6-6.7h21.3
		c2.9,0,5.5,1.2,7.3,3.1c3.5-2.3,7.6-3.6,12.2-4c0.3,0,0.5,0,0.8,0c3.3,0,6.3,1.6,8.2,4.1c5-3.1,10.7-4.7,16.8-4.7
		c4.4,0,8.4,0.7,12.1,2.1V23.5c0-5.4,4.4-9.7,9.7-9.7H728c5.4,0,9.7,4.4,9.7,9.7v82.2c0,5.4-4.4,9.7-9.7,9.7h-22.3
		c-2.4,0-4.6-0.9-6.3-2.4C694.8,115.7,689.8,116.9,684,116.9z M229.4,71.4c-2,0-3.1,2-3.1,3.9v0.2c0,2.3,1.5,4.2,3.3,4.2
		c2,0,3.1-2,3.1-3.9v-0.2C232.8,73.2,231.3,71.4,229.4,71.4z"/>
	<path class="st0" d="M692.1,72.1c-2.4,0-3.4,2.2-3.4,4.3v0.2c0,2.1,1.1,4.3,3.4,4.3c2.4,0,3.4-2.2,3.4-4.3v-0.2
		C695.5,74.3,694.3,72.1,692.1,72.1z M511.3,72.3c-2,0-3.1,2-3.1,3.9v0.2c0,2.3,1.5,4.2,3.3,4.2c2,0,3.1-2,3.1-3.9v-0.2
		C514.7,74.2,513.2,72.3,511.3,72.3z M393.2,72.1v-1.6l-0.5,0.7L393.2,72.1z M298.4,72.3c-2,0-3.1,2-3.1,3.9v0.2
		c0,2.3,1.5,4.2,3.3,4.2c2,0,3.1-2,3.1-3.9v-0.2C301.7,74.2,300.2,72.3,298.4,72.3z M683.1,117.9c-17.6,0-31.4-13.4-34.6-32.3
		c-0.4,1.7-0.7,4-0.7,6.8v13.7c0,5.6-4.6,10.2-10.2,10.2h-51.1c-2.1,0-4.1-0.7-5.7-1.9c-4.5,2.3-9.5,3.5-15,3.5
		c-10.5,0-19-4.2-23.9-11.3c-8,7.1-18.8,11.3-30.4,11.3c-12.7,0-24.3-4.8-32.4-13.1c-6.8,7.4-18,11.6-32.2,11.6h-40.3
		c-1.7,0-3.3-0.3-4.9-0.9c-1.4,0.6-3,0.9-4.6,0.9h-18.4c-4.5,0-8.5-2.5-10.6-6.4l-0.5-0.9c-1.8,4.3-6.1,7.3-11,7.3h-17.8
		c-5.3,0-9.8-3.5-11.4-8.2c-7.7,6.2-17.8,9.8-28.8,9.8c-14.2,0-26.9-6.1-34.9-16.1c-8.1,10-20.9,16.1-35,16.1
		c-12.7,0-24.3-4.8-32.4-13.1c-6.8,7.4-18,11.6-32.2,11.6h-40.3c-7.3,0-13.2-5.9-13.2-13.2V31.5c0-7.3,5.9-13.2,13.2-13.2h40.8
		c13.1,0,22.3,3.1,28.9,9.7c4.4,4.4,6.9,10.1,7.2,16.6c7.6-5.9,17.5-9.5,28.2-9.5c14.2,0,26.9,6.1,34.9,16.1
		c8.1-10,20.9-16.1,35-16.1c10.7,0,20.4,3.4,27.9,9.2V26.7c0-6.6,5.4-12,12-12h17.8c6.6,0,12,5.4,12,12v13.9c2.3-2.5,5.5-4,8.9-4
		h15.9v-5.1c0-7.3,5.9-13.2,13.2-13.2h40.8c13.1,0,22.3,3.1,28.9,9.7c4.4,4.4,6.9,10.1,7.2,16.6c7.6-5.9,17.5-9.5,28.2-9.5
		c12.6,0,23.9,4.8,31.8,12.6c0.8-3.7,3.5-6.8,7.3-8.1c8.2-2.7,16.8-4,26.5-4c13,0,22.4,2.5,29.5,7.8c1.4-3.9,5.2-6.7,9.6-6.7h21.3
		c2.9,0,5.5,1.2,7.3,3.1c3.5-2.3,7.6-3.6,12.2-4c0.3,0,0.5,0,0.8,0c3.3,0,6.3,1.6,8.2,4.1c5-3.1,10.7-4.7,16.8-4.7
		c4.4,0,8.4,0.7,12.1,2.1V24.5c0-5.4,4.4-9.7,9.7-9.7H727c5.4,0,9.7,4.4,9.7,9.7v82.2c0,5.4-4.4,9.7-9.7,9.7h-22.3
		c-2.4,0-4.6-0.9-6.3-2.4C693.8,116.7,688.8,117.9,683.1,117.9z M228.5,72.3c-2,0-3.1,2-3.1,3.9v0.2c0,2.3,1.5,4.2,3.3,4.2
		c2,0,3.1-2,3.1-3.9v-0.2C231.8,74.2,230.3,72.3,228.5,72.3z"/>
	<path class="st0" d="M691.1,73.1c-2.4,0-3.4,2.2-3.4,4.3v0.2c0,2.1,1.1,4.3,3.4,4.3s3.4-2.2,3.4-4.3v-0.2
		C694.6,75.3,693.3,73.1,691.1,73.1z M510.4,73.3c-2,0-3.1,2-3.1,3.9v0.2c0,2.3,1.5,4.2,3.3,4.2c2,0,3.1-2,3.1-3.9v-0.2
		C513.7,75.2,512.2,73.3,510.4,73.3z M392.2,73.1v-1.6l-0.5,0.7L392.2,73.1z M297.4,73.3c-2,0-3.1,2-3.1,3.9v0.2
		c0,2.3,1.5,4.2,3.3,4.2c2,0,3.1-2,3.1-3.9v-0.2C300.7,75.2,299.3,73.3,297.4,73.3z M682.1,118.9c-17.6,0-31.4-13.4-34.6-32.3
		c-0.4,1.7-0.7,4-0.7,6.8v13.7c0,5.6-4.6,10.2-10.2,10.2h-51.1c-2.1,0-4.1-0.7-5.7-1.9c-4.5,2.3-9.5,3.5-15,3.5
		c-10.5,0-19-4.2-23.9-11.3c-8,7.1-18.8,11.3-30.4,11.3c-12.7,0-24.3-4.8-32.4-13.1c-6.8,7.4-18,11.6-32.2,11.6h-40.3
		c-1.7,0-3.3-0.3-4.9-0.9c-1.4,0.6-3,0.9-4.6,0.9h-18.4c-4.5,0-8.5-2.5-10.6-6.4l-0.5-0.9c-1.8,4.3-6.1,7.3-11,7.3h-17.8
		c-5.3,0-9.8-3.5-11.4-8.2c-7.7,6.2-17.8,9.8-28.8,9.8c-14.2,0-26.9-6.1-34.9-16.1c-8.1,10-20.9,16.1-35,16.1
		c-12.7,0-24.3-4.8-32.4-13.1c-6.8,7.4-18,11.6-32.2,11.6h-40.3c-7.3,0-13.2-5.9-13.2-13.2V32.5c0-7.3,5.9-13.2,13.2-13.2h40.8
		c13.1,0,22.3,3.1,28.9,9.7c4.4,4.4,6.9,10.1,7.2,16.6c7.6-5.9,17.5-9.5,28.2-9.5c14.2,0,26.9,6.1,34.9,16.1
		c8.1-10,20.9-16.1,35-16.1c10.7,0,20.4,3.4,27.9,9.2V27.7c0-6.6,5.4-12,12-12h17.8c6.6,0,12,5.4,12,12v13.9c2.3-2.5,5.5-4,8.9-4
		h15.9v-5.1c0-7.3,5.9-13.2,13.2-13.2h40.8c13.1,0,22.3,3.1,28.9,9.7c4.4,4.4,6.9,10.1,7.2,16.6c7.6-5.9,17.5-9.5,28.2-9.5
		c12.6,0,23.9,4.8,31.8,12.6c0.8-3.7,3.5-6.8,7.3-8.1c8.2-2.7,16.8-4,26.5-4c13,0,22.4,2.5,29.5,7.8c1.4-3.9,5.2-6.7,9.6-6.7h21.3
		c2.9,0,5.5,1.2,7.3,3.1c3.5-2.3,7.6-3.6,12.2-4c0.3,0,0.5,0,0.8,0c3.3,0,6.3,1.6,8.2,4.1c5-3.1,10.7-4.7,16.8-4.7
		c4.4,0,8.4,0.7,12.1,2.1V25.5c0-5.4,4.4-9.7,9.7-9.7H726c5.4,0,9.7,4.4,9.7,9.7v82.2c0,5.4-4.4,9.7-9.7,9.7h-22.3
		c-2.4,0-4.6-0.9-6.3-2.4C692.8,117.6,687.8,118.9,682.1,118.9z M227.5,73.3c-2,0-3.1,2-3.1,3.9v0.2c0,2.3,1.5,4.2,3.3,4.2
		c2,0,3.1-2,3.1-3.9v-0.2C230.8,75.2,229.3,73.3,227.5,73.3z"/>
	<path class="st0" d="M690.1,74.1c-2.4,0-3.4,2.2-3.4,4.3v0.2c0,2.1,1.1,4.3,3.4,4.3s3.4-2.2,3.4-4.3v-0.2
		C693.6,76.3,692.4,74.1,690.1,74.1z M509.4,74.3c-2,0-3.1,2-3.1,3.9v0.2c0,2.3,1.5,4.2,3.3,4.2c2,0,3.1-2,3.1-3.9v-0.2
		C512.7,76.2,511.2,74.3,509.4,74.3z M391.2,74.1v-1.6l-0.5,0.7L391.2,74.1z M296.4,74.3c-2,0-3.1,2-3.1,3.9v0.2
		c0,2.3,1.5,4.2,3.3,4.2c2,0,3.1-2,3.1-3.9v-0.2C299.8,76.2,298.3,74.3,296.4,74.3z M681.1,119.9c-17.6,0-31.4-13.4-34.6-32.3
		c-0.4,1.7-0.7,4-0.7,6.8v13.7c0,5.6-4.6,10.2-10.2,10.2h-51.1c-2.1,0-4.1-0.7-5.7-1.9c-4.5,2.3-9.5,3.5-15,3.5
		c-10.5,0-19-4.2-23.9-11.3c-8,7.1-18.8,11.3-30.4,11.3c-12.7,0-24.3-4.8-32.4-13.1c-6.8,7.4-18,11.6-32.2,11.6h-40.3
		c-1.7,0-3.3-0.3-4.9-0.9c-1.4,0.6-3,0.9-4.6,0.9h-18.4c-4.5,0-8.5-2.5-10.6-6.4l-0.5-0.9c-1.8,4.3-6.1,7.3-11,7.3h-17.8
		c-5.3,0-9.8-3.5-11.4-8.2c-7.7,6.2-17.8,9.8-28.8,9.8c-14.2,0-26.9-6.1-34.9-16.1c-8.1,10-20.9,16.1-35,16.1
		c-12.7,0-24.3-4.8-32.4-13.1c-6.8,7.4-18,11.6-32.2,11.6h-40.3c-7.3,0-13.2-5.9-13.2-13.2V33.5c0-7.3,5.9-13.2,13.2-13.2h40.8
		c13.1,0,22.3,3.1,28.9,9.7c4.4,4.4,6.9,10.1,7.2,16.6c7.6-5.9,17.5-9.5,28.2-9.5c14.2,0,26.9,6.1,34.9,16.1
		c8.1-10,20.9-16.1,35-16.1c10.7,0,20.4,3.4,27.9,9.2V28.7c0-6.6,5.4-12,12-12h17.8c6.6,0,12,5.4,12,12v13.9c2.3-2.5,5.5-4,8.9-4
		h15.9v-5.1c0-7.3,5.9-13.2,13.2-13.2h40.8c13.1,0,22.3,3.1,28.9,9.7c4.4,4.4,6.9,10.1,7.2,16.6c7.6-5.9,17.5-9.5,28.2-9.5
		c12.6,0,23.9,4.8,31.8,12.6c0.8-3.7,3.5-6.8,7.3-8.1c8.2-2.7,16.8-4,26.5-4c13,0,22.4,2.5,29.5,7.8c1.4-3.9,5.2-6.7,9.6-6.7h21.3
		c2.9,0,5.5,1.2,7.3,3.1c3.5-2.3,7.6-3.6,12.2-4c0.3,0,0.5,0,0.8,0c3.3,0,6.3,1.6,8.2,4.1c5-3.1,10.7-4.7,16.8-4.7
		c4.4,0,8.4,0.7,12.1,2.1V26.4c0-5.4,4.4-9.7,9.7-9.7H725c5.4,0,9.7,4.4,9.7,9.7v82.2c0,5.4-4.4,9.7-9.7,9.7h-22.3
		c-2.4,0-4.6-0.9-6.3-2.4C691.8,118.6,686.9,119.9,681.1,119.9z M226.5,74.3c-2,0-3.1,2-3.1,3.9v0.2c0,2.3,1.5,4.2,3.3,4.2
		c2,0,3.1-2,3.1-3.9v-0.2C229.8,76.2,228.3,74.3,226.5,74.3z"/>
	<path class="st0" d="M689.1,75.1c-2.4,0-3.4,2.2-3.4,4.3v0.2c0,2.1,1.1,4.3,3.4,4.3s3.4-2.2,3.4-4.3v-0.2
		C692.6,77.3,691.4,75.1,689.1,75.1z M508.4,75.3c-2,0-3.1,2-3.1,3.9v0.2c0,2.3,1.5,4.2,3.3,4.2c2,0,3.1-2,3.1-3.9v-0.2
		C511.7,77.2,510.2,75.3,508.4,75.3z M390.3,75v-1.6l-0.5,0.7L390.3,75z M295.4,75.3c-2,0-3.1,2-3.1,3.9v0.2c0,2.3,1.5,4.2,3.3,4.2
		c2,0,3.1-2,3.1-3.9v-0.2C298.8,77.2,297.3,75.3,295.4,75.3z M680.1,120.9c-17.6,0-31.4-13.4-34.6-32.3c-0.4,1.7-0.7,4-0.7,6.8v13.7
		c0,5.6-4.6,10.2-10.2,10.2h-51.1c-2.1,0-4.1-0.7-5.7-1.9c-4.5,2.3-9.5,3.5-15,3.5c-10.5,0-19-4.2-23.9-11.3
		c-8,7.1-18.8,11.3-30.4,11.3c-12.7,0-24.3-4.8-32.4-13.1c-6.8,7.4-18,11.6-32.2,11.6h-40.3c-1.7,0-3.3-0.3-4.9-0.9
		c-1.4,0.6-3,0.9-4.6,0.9h-18.4c-4.5,0-8.5-2.5-10.6-6.4l-0.5-0.9c-1.8,4.3-6.1,7.3-11,7.3h-17.8c-5.3,0-9.8-3.5-11.4-8.2
		c-7.7,6.2-17.8,9.8-28.8,9.8c-14.2,0-26.9-6.1-34.9-16.1c-8.1,10-20.9,16.1-35,16.1c-12.7,0-24.3-4.8-32.4-13.1
		c-6.8,7.4-18,11.6-32.2,11.6h-40.3c-7.3,0-13.2-5.9-13.2-13.2V34.5c0-7.3,5.9-13.2,13.2-13.2h40.8c13.1,0,22.3,3.1,28.9,9.7
		c4.4,4.4,6.9,10.1,7.2,16.6c7.6-5.9,17.5-9.5,28.2-9.5c14.2,0,26.9,6.1,34.9,16.1c8.1-10,20.9-16.1,35-16.1
		c10.7,0,20.4,3.4,27.9,9.2V29.7c0-6.6,5.4-12,12-12h17.8c6.6,0,12,5.4,12,12v13.9c2.3-2.5,5.5-4,8.9-4h15.9v-5.1
		c0-7.3,5.9-13.2,13.2-13.2h40.8c13.1,0,22.3,3.1,28.9,9.7c4.4,4.4,6.9,10.1,7.2,16.6c7.6-5.9,17.5-9.5,28.2-9.5
		c12.6,0,23.9,4.8,31.8,12.6c0.8-3.7,3.5-6.8,7.3-8.1c8.2-2.7,16.8-4,26.5-4c13,0,22.4,2.5,29.5,7.8c1.4-3.9,5.2-6.7,9.6-6.7h21.3
		c2.9,0,5.5,1.2,7.3,3.1c3.5-2.3,7.6-3.6,12.2-4c0.3,0,0.5,0,0.8,0c3.3,0,6.3,1.6,8.2,4.1c5-3.1,10.7-4.7,16.8-4.7
		c4.4,0,8.4,0.7,12.1,2.1V27.4c0-5.4,4.4-9.7,9.7-9.7H724c5.4,0,9.7,4.4,9.7,9.7v82.2c0,5.4-4.4,9.7-9.7,9.7h-22.3
		c-2.4,0-4.6-0.9-6.3-2.4C690.8,119.6,685.9,120.9,680.1,120.9z M225.5,75.3c-2,0-3.1,2-3.1,3.9v0.2c0,2.3,1.5,4.2,3.3,4.2
		c2,0,3.1-2,3.1-3.9v-0.2C228.8,77.2,227.3,75.3,225.5,75.3z"/>
	<path class="st0" d="M688.2,76c-2.4,0-3.4,2.2-3.4,4.3v0.2c0,2.1,1.1,4.3,3.4,4.3c2.4,0,3.4-2.2,3.4-4.3v-0.2
		C691.6,78.2,690.4,76,688.2,76z M507.4,76.3c-2,0-3.1,2-3.1,3.9v0.2c0,2.3,1.5,4.2,3.3,4.2c2,0,3.1-2,3.1-3.9v-0.2
		C510.7,78.1,509.2,76.3,507.4,76.3z M389.3,76v-1.6l-0.5,0.7L389.3,76z M294.5,76.3c-2,0-3.1,2-3.1,3.9v0.2c0,2.3,1.5,4.2,3.3,4.2
		c2,0,3.1-2,3.1-3.9v-0.2C297.8,78.1,296.3,76.3,294.5,76.3z M679.1,121.8c-17.6,0-31.4-13.4-34.6-32.3c-0.4,1.7-0.7,4-0.7,6.8v13.7
		c0,5.6-4.6,10.2-10.2,10.2h-51.1c-2.1,0-4.1-0.7-5.7-1.9c-4.5,2.3-9.5,3.5-15,3.5c-10.5,0-19-4.2-23.9-11.3
		c-8,7.1-18.8,11.3-30.4,11.3c-12.7,0-24.3-4.8-32.4-13.1c-6.8,7.4-18,11.6-32.2,11.6h-40.3c-1.7,0-3.3-0.3-4.9-0.9
		c-1.4,0.6-3,0.9-4.6,0.9h-18.4c-4.5,0-8.5-2.5-10.6-6.4l-0.5-0.9c-1.8,4.3-6.1,7.3-11,7.3h-17.8c-5.3,0-9.8-3.5-11.4-8.2
		c-7.7,6.2-17.8,9.8-28.8,9.8c-14.2,0-26.9-6.1-34.9-16.1c-8.1,10-20.9,16.1-35,16.1c-12.7,0-24.3-4.8-32.4-13.1
		c-6.8,7.4-18,11.6-32.2,11.6h-40.3c-7.3,0-13.2-5.9-13.2-13.2V35.5c0-7.3,5.9-13.2,13.2-13.2h40.8c13.1,0,22.3,3.1,28.9,9.7
		c4.4,4.4,6.9,10.1,7.2,16.6c7.6-5.9,17.5-9.5,28.2-9.5c14.2,0,26.9,6.1,34.9,16.1c8.1-10,20.9-16.1,35-16.1
		c10.7,0,20.4,3.4,27.9,9.2V30.7c0-6.6,5.4-12,12-12h17.8c6.6,0,12,5.4,12,12v13.9c2.3-2.5,5.5-4,8.9-4h15.9v-5.1
		c0-7.3,5.9-13.2,13.2-13.2h40.8c13.1,0,22.3,3.1,28.9,9.7c4.4,4.4,6.9,10.1,7.2,16.6c7.6-5.9,17.5-9.5,28.2-9.5
		c12.6,0,23.9,4.8,31.8,12.6c0.8-3.7,3.5-6.8,7.3-8.1c8.2-2.7,16.8-4,26.5-4c13,0,22.4,2.5,29.5,7.8c1.4-3.9,5.2-6.7,9.6-6.7h21.3
		c2.9,0,5.5,1.2,7.3,3.1c3.5-2.3,7.6-3.6,12.2-4c0.3,0,0.5,0,0.8,0c3.3,0,6.3,1.6,8.2,4.1c5-3.1,10.7-4.7,16.8-4.7
		c4.4,0,8.4,0.7,12.1,2.1V28.4c0-5.4,4.4-9.7,9.7-9.7h22.3c5.4,0,9.7,4.4,9.7,9.7v82.2c0,5.4-4.4,9.7-9.7,9.7h-22.3
		c-2.4,0-4.6-0.9-6.3-2.4C689.9,120.6,684.9,121.8,679.1,121.8z M224.5,76.3c-2,0-3.1,2-3.1,3.9v0.2c0,2.3,1.5,4.2,3.3,4.2
		c2,0,3.1-2,3.1-3.9v-0.2C227.8,78.1,226.3,76.3,224.5,76.3z"/>
	<path class="st0" d="M687.2,77c-2.4,0-3.4,2.2-3.4,4.3v0.2c0,2.1,1.1,4.3,3.4,4.3s3.4-2.2,3.4-4.3v-0.2
		C690.6,79.2,689.4,77,687.2,77z M506.4,77.3c-2,0-3.1,2-3.1,3.9v0.2c0,2.3,1.5,4.2,3.3,4.2c2,0,3.1-2,3.1-3.9v-0.2
		C509.7,79.1,508.3,77.3,506.4,77.3z M388.3,77v-1.6l-0.5,0.7L388.3,77z M293.5,77.3c-2,0-3.1,2-3.1,3.9v0.2c0,2.3,1.5,4.2,3.3,4.2
		c2,0,3.1-2,3.1-3.9v-0.2C296.8,79.1,295.3,77.3,293.5,77.3z M678.1,122.8c-17.6,0-31.4-13.4-34.6-32.3c-0.4,1.7-0.7,4-0.7,6.8V111
		c0,5.6-4.6,10.2-10.2,10.2h-51.1c-2.1,0-4.1-0.7-5.7-1.9c-4.5,2.3-9.5,3.5-15,3.5c-10.5,0-19-4.2-23.9-11.3
		c-8,7.1-18.8,11.3-30.4,11.3c-12.7,0-24.3-4.8-32.4-13.1c-6.8,7.4-18,11.6-32.2,11.6h-40.3c-1.7,0-3.3-0.3-4.9-0.9
		c-1.4,0.6-3,0.9-4.6,0.9h-18.4c-4.5,0-8.5-2.5-10.6-6.4l-0.5-0.9c-1.8,4.3-6.1,7.3-11,7.3h-17.8c-5.3,0-9.8-3.5-11.4-8.2
		c-7.7,6.2-17.8,9.8-28.8,9.8c-14.2,0-26.9-6.1-34.9-16.1c-8.1,10-20.9,16.1-35,16.1c-12.7,0-24.3-4.8-32.4-13.1
		c-6.8,7.4-18,11.6-32.2,11.6h-40.3c-7.3,0-13.2-5.9-13.2-13.2V36.4c0-7.3,5.9-13.2,13.2-13.2h40.8c13.1,0,22.3,3.1,28.9,9.7
		c4.4,4.4,6.9,10.1,7.2,16.6c7.6-5.9,17.5-9.5,28.2-9.5c14.2,0,26.9,6.1,34.9,16.1c8.1-10,20.9-16.1,35-16.1
		c10.7,0,20.4,3.4,27.9,9.2V31.7c0-6.6,5.4-12,12-12h17.8c6.6,0,12,5.4,12,12v13.9c2.3-2.5,5.5-4,8.9-4h15.9v-5.1
		c0-7.3,5.9-13.2,13.2-13.2h40.8c13.1,0,22.3,3.1,28.9,9.7c4.4,4.4,6.9,10.1,7.2,16.6c7.6-5.9,17.5-9.5,28.2-9.5
		c12.6,0,23.9,4.8,31.8,12.6c0.8-3.7,3.5-6.8,7.3-8.1c8.2-2.7,16.8-4,26.5-4c13,0,22.4,2.5,29.5,7.8c1.4-3.9,5.2-6.7,9.6-6.7h21.3
		c2.9,0,5.5,1.2,7.3,3.1c3.5-2.3,7.6-3.6,12.2-4c0.3,0,0.5,0,0.8,0c3.3,0,6.3,1.6,8.2,4.1c5-3.1,10.7-4.7,16.8-4.7
		c4.4,0,8.4,0.7,12.1,2.1V29.4c0-5.4,4.4-9.7,9.7-9.7h22.3c5.4,0,9.7,4.4,9.7,9.7v82.2c0,5.4-4.4,9.7-9.7,9.7h-22.3
		c-2.4,0-4.6-0.9-6.3-2.4C688.9,121.6,683.9,122.8,678.1,122.8z M223.5,77.3c-2,0-3.1,2-3.1,3.9v0.2c0,2.3,1.5,4.2,3.3,4.2
		c2,0,3.1-2,3.1-3.9v-0.2C226.9,79.1,225.4,77.3,223.5,77.3z"/>
	<path class="st0" d="M686.2,78c-2.4,0-3.4,2.2-3.4,4.3v0.2c0,2.1,1.1,4.3,3.4,4.3s3.4-2.2,3.4-4.3v-0.2
		C689.6,80.2,688.4,78,686.2,78z M505.4,78.2c-2,0-3.1,2-3.1,3.9v0.2c0,2.3,1.5,4.2,3.3,4.2c2,0,3.1-2,3.1-3.9v-0.2
		C508.8,80.1,507.3,78.2,505.4,78.2z M387.3,78v-1.6l-0.5,0.7L387.3,78z M292.5,78.2c-2,0-3.1,2-3.1,3.9v0.2c0,2.3,1.5,4.2,3.3,4.2
		c2,0,3.1-2,3.1-3.9v-0.2C295.8,80.1,294.3,78.2,292.5,78.2z M677.2,123.8c-17.6,0-31.4-13.4-34.6-32.3c-0.4,1.7-0.7,4-0.7,6.8V112
		c0,5.6-4.6,10.2-10.2,10.2h-51.1c-2.1,0-4.1-0.7-5.7-1.9c-4.5,2.3-9.5,3.5-15,3.5c-10.5,0-19-4.2-23.9-11.3
		c-8,7.1-18.8,11.3-30.4,11.3c-12.7,0-24.3-4.8-32.4-13.1c-6.8,7.4-18,11.6-32.2,11.6h-40.3c-1.7,0-3.3-0.3-4.9-0.9
		c-1.4,0.6-3,0.9-4.6,0.9h-18.4c-4.5,0-8.5-2.5-10.6-6.4l-0.5-0.9c-1.8,4.3-6.1,7.3-11,7.3h-17.8c-5.3,0-9.8-3.5-11.4-8.2
		c-7.7,6.2-17.8,9.8-28.8,9.8c-14.2,0-26.9-6.1-34.9-16.1c-8.1,10-20.9,16.1-35,16.1c-12.7,0-24.3-4.8-32.4-13.1
		c-6.8,7.4-18,11.6-32.2,11.6h-40.3c-7.3,0-13.2-5.9-13.2-13.2V37.4c0-7.3,5.9-13.2,13.2-13.2h40.8c13.1,0,22.3,3.1,28.9,9.7
		c4.4,4.4,6.9,10.1,7.2,16.6c7.6-5.9,17.5-9.5,28.2-9.5c14.2,0,26.9,6.1,34.9,16.1c8.1-10,20.9-16.1,35-16.1
		c10.7,0,20.4,3.4,27.9,9.2V32.6c0-6.6,5.4-12,12-12h17.8c6.6,0,12,5.4,12,12v13.9c2.3-2.5,5.5-4,8.9-4h15.9v-5.1
		c0-7.3,5.9-13.2,13.2-13.2h40.8c13.1,0,22.3,3.1,28.9,9.7c4.4,4.4,6.9,10.1,7.2,16.6c7.6-5.9,17.5-9.5,28.2-9.5
		c12.6,0,23.9,4.8,31.8,12.6c0.8-3.7,3.5-6.8,7.3-8.1c8.2-2.7,16.8-4,26.5-4c13,0,22.4,2.5,29.5,7.8c1.4-3.9,5.2-6.7,9.6-6.7h21.3
		c2.9,0,5.5,1.2,7.3,3.1c3.5-2.3,7.6-3.6,12.2-4c0.3,0,0.5,0,0.8,0c3.3,0,6.3,1.6,8.2,4.1c5-3.1,10.7-4.7,16.8-4.7
		c4.4,0,8.4,0.7,12.1,2.1V30.4c0-5.4,4.4-9.7,9.7-9.7h22.3c5.4,0,9.7,4.4,9.7,9.7v82.2c0,5.4-4.4,9.7-9.7,9.7h-22.3
		c-2.4,0-4.6-0.9-6.3-2.4C687.9,122.6,682.9,123.8,677.2,123.8z M222.5,78.2c-2,0-3.1,2-3.1,3.9v0.2c0,2.3,1.5,4.2,3.3,4.2
		c2,0,3.1-2,3.1-3.9v-0.2C225.9,80.1,224.4,78.2,222.5,78.2z"/>
	<path class="st0" d="M685.2,79c-2.4,0-3.4,2.2-3.4,4.3v0.2c0,2.1,1.1,4.3,3.4,4.3s3.4-2.2,3.4-4.3v-0.2
		C688.7,81.2,687.4,79,685.2,79z M504.5,79.2c-2,0-3.1,2-3.1,3.9v0.2c0,2.3,1.5,4.2,3.3,4.2c2,0,3.1-2,3.1-3.9v-0.2
		C507.8,81.1,506.3,79.2,504.5,79.2z M386.3,79v-1.6l-0.5,0.7L386.3,79z M291.5,79.2c-2,0-3.1,2-3.1,3.9v0.2c0,2.3,1.5,4.2,3.3,4.2
		c2,0,3.1-2,3.1-3.9v-0.2C294.8,81.1,293.3,79.2,291.5,79.2z M676.2,124.8c-17.6,0-31.4-13.4-34.6-32.3c-0.4,1.7-0.7,4-0.7,6.8V113
		c0,5.6-4.6,10.2-10.2,10.2h-51.1c-2.1,0-4.1-0.7-5.7-1.9c-4.5,2.3-9.5,3.5-15,3.5c-10.5,0-19-4.2-23.9-11.3
		c-8,7.1-18.8,11.3-30.4,11.3c-12.7,0-24.3-4.8-32.4-13.1c-6.8,7.4-18,11.6-32.2,11.6h-40.3c-1.7,0-3.3-0.3-4.9-0.9
		c-1.4,0.6-3,0.9-4.6,0.9h-18.4c-4.5,0-8.5-2.5-10.6-6.4l-0.5-0.9c-1.8,4.3-6.1,7.3-11,7.3h-17.8c-5.3,0-9.8-3.5-11.4-8.2
		c-7.7,6.2-17.8,9.8-28.8,9.8c-14.2,0-26.9-6.1-34.9-16.1c-8.1,10-20.9,16.1-35,16.1c-12.7,0-24.3-4.8-32.4-13.1
		c-6.8,7.4-18,11.6-32.2,11.6h-40.3c-7.3,0-13.2-5.9-13.2-13.2V38.4c0-7.3,5.9-13.2,13.2-13.2h40.8c13.1,0,22.3,3.1,28.9,9.7
		c4.4,4.4,6.9,10.1,7.2,16.6c7.6-5.9,17.5-9.5,28.2-9.5c14.2,0,26.9,6.1,34.9,16.1c8.1-10,20.9-16.1,35-16.1
		c10.7,0,20.4,3.4,27.9,9.2V33.6c0-6.6,5.4-12,12-12h17.8c6.6,0,12,5.4,12,12v13.9c2.3-2.5,5.5-4,8.9-4h15.9v-5.1
		c0-7.3,5.9-13.2,13.2-13.2h40.8c13.1,0,22.3,3.1,28.9,9.7c4.4,4.4,6.9,10.1,7.2,16.6c7.6-5.9,17.5-9.5,28.2-9.5
		c12.6,0,23.9,4.8,31.8,12.6c0.8-3.7,3.5-6.8,7.3-8.1c8.2-2.7,16.8-4,26.5-4c13,0,22.4,2.5,29.5,7.8c1.4-3.9,5.2-6.7,9.6-6.7h21.3
		c2.9,0,5.5,1.2,7.3,3.1c3.5-2.3,7.6-3.6,12.2-4c0.3,0,0.5,0,0.8,0c3.3,0,6.3,1.6,8.2,4.1c5-3.1,10.7-4.7,16.8-4.7
		c4.4,0,8.4,0.7,12.1,2.1V31.4c0-5.4,4.4-9.7,9.7-9.7h22.3c5.4,0,9.7,4.4,9.7,9.7v82.2c0,5.4-4.4,9.7-9.7,9.7h-22.3
		c-2.4,0-4.6-0.9-6.3-2.4C686.9,123.5,681.9,124.8,676.2,124.8z M221.6,79.2c-2,0-3.1,2-3.1,3.9v0.2c0,2.3,1.5,4.2,3.3,4.2
		c2,0,3.1-2,3.1-3.9v-0.2C224.9,81.1,223.4,79.2,221.6,79.2z"/>
</g>
<path class="st1" d="M100.4,84.5H79.2c-2.3,0-4.1-1.8-4.1-4.1v-4.5c0-1.6,1-3.1,2.4-3.7c12.6-5.5,20.6-17.5,20.6-30.8v-0.2
	C98.2,22.8,83,7.4,61.7,7.4c-21.4,0-36.6,15.7-36.6,34v0.2c0,13.3,8,25.2,20.6,30.6c1.5,0.6,2.5,2.1,2.5,3.7v4.4
	c0,2.3-1.8,4.1-4.1,4.1H22.8c-2.5,0-4.6,2.1-4.6,4.6v17.8c0,2.5,2.1,4.6,4.6,4.6h77.6c2.5,0,4.6-2.1,4.6-4.6V89.1
	C105.1,86.5,103,84.5,100.4,84.5z M72.2,41.7c0,6.2-4.4,11.3-10.5,11.3C55.8,53,51,47.8,51,41.4v-0.2c0-6.2,4.4-11.3,10.5-11.3
	c5.9,0,10.7,5.1,10.7,11.5V41.7z"/>
<path class="st1" d="M730.9,18.2h-22.3c-1.3,0-2.3,1.1-2.3,2.3v21.4c0,2-2.3,3.1-3.8,1.8c-3.7-3-8.5-5.2-15.7-5.2
	c-9.1,0-17.1,4.8-22.1,12.9l0-9.4c0-1.7-1.4-3-3.1-2.8c-5.3,0.4-9.3,2.5-12.3,5.9c-1.7,1.9-4.9,0.6-4.9-2v-0.2
	c0-1.6-1.3-2.9-2.9-2.9h-21.3c-1.6,0-2.9,1.3-2.9,2.9v52.7c0,0.5-0.4,1-1,1s-1-0.4-1-1V68c0-9.4-1.9-15.7-6.8-20.6
	c-5.7-5.7-14.3-8.4-27.5-8.4c-9.7,0-17.4,1.4-24.2,3.6c-1.8,0.6-2.8,2.5-2.4,4.3l2.9,11c0.5,2,2.6,3.1,4.6,2.5
	c4.5-1.5,9.1-2.4,14.4-2.4c8.3,0,12,3.4,12,9.4v1.1c-2.9-1.2-9.9-2.4-15.3-2.4c-9.7,0-17.2,3-21.3,8.6c0-0.7,0.1-1.4,0.1-2.2v-0.2
	c0-18.3-15.1-33.8-36.4-33.8c-20.3,0-35.1,14.1-36.5,31.3c-1.2-1.6-2.7-3-4.5-4.1c-3.1-2.1-3.5-6.6-0.7-9c3.8-3.4,6.1-8,6.1-14.1
	v-0.2c0-5.7-2.1-10-5.1-13c-4.9-4.9-12.1-7.5-23.7-7.5h-40.8c-3.2,0-5.8,2.6-5.8,5.8v69.9l-15.2-28.4c-0.9-1.6-0.7-3.6,0.4-5
	l12.8-16.6c2.3-3,0.2-7.4-3.7-7.4h-17.6c-1.5,0-2.9,0.7-3.8,2l-4.2,6c-2.6,3.7-8.4,1.9-8.4-2.6V22.8c0-2.5-2.1-4.6-4.6-4.6h-17.8
	c-2.5,0-4.6,2.1-4.6,4.6V64c-3.8-14.4-17.4-25.4-35.3-25.4c-17.3,0-30.6,10.3-35.1,24c-4.3-13.7-17.6-24-34.9-24
	c-20.3,0-35.1,14.1-36.5,31.2c-3.1-4-7.9-6.5-13.9-8.3c8.9-3.1,14.9-9.2,14.9-19v-0.2c0-5.7-2.1-10-5.1-13
	c-4.9-4.9-12.1-7.5-23.7-7.5h-40.8c-3.2,0-5.8,2.6-5.8,5.8v71.6c0,3.2,2.6,5.8,5.8,5.8h40.3c18.3,0,29-7.4,31.4-18
	c5.5,11.5,17.7,19.6,33.2,19.6c17.3,0,30.6-10.3,35.1-24c4.3,13.7,17.6,24,34.9,24c18.1,0,31.7-11.2,35.6-25.7v19.5
	c0,2.5,2.1,4.6,4.6,4.6h17.8c2.5,0,4.6-2.1,4.6-4.6v-4.6c0-1.1,0.3-2.2,1-3.1c2.1-2.6,6.1-2.2,7.7,0.7l4.8,9.1
	c0.8,1.5,2.4,2.5,4.1,2.5h18.4c2.1,0,3.7-1.3,4.3-3.1c1,1.8,2.9,3.1,5.1,3.1h40.3c18.3,0,29-7.4,31.4-18
	c5.5,11.5,17.7,19.6,33.2,19.6c15.3,0,27.4-8,33.1-19.2c0.4,12.4,9,19.2,21.3,19.2c6.3,0,11.4-1.9,15.4-5.1c1.3-1,3.3-0.1,3.2,1.6
	c0,1.1,0.9,1.9,2,1.9h14.9h7.6h7.3h5h16.3c1.6,0,2.9-1.3,2.9-2.9V88.5c0-13.3,5.2-19.7,15-20.6c-0.2,1.6-0.2,3.2-0.2,4.9V73
	c0,19.9,12.3,33.6,28,33.6c7.1,0,11.7-2.5,15.4-5.7c1.5-1.3,3.9-0.2,3.9,1.8v0c0,1.3,1.1,2.3,2.3,2.3h22.3c1.3,0,2.3-1.1,2.3-2.3
	V20.5C733.3,19.2,732.2,18.2,730.9,18.2z M154.6,42.8h6.2c5.9,0,8.9,2,8.9,5.7v0.2c0,3.7-2.9,5.7-8.8,5.7h-6.3
	c-3.2,0-5.8-2.6-5.8-5.8C148.8,45.4,151.4,42.8,154.6,42.8z M171.8,77.9c0,3.6-3.1,6.1-9.2,6.1h-8.1c-3.2,0-5.8-2.6-5.8-5.8v-0.7
	c0-3.2,2.6-5.8,5.8-5.8h8.2c6.1,0,9,2.5,9,6.1V77.9z M243.1,72.8c0,6.2-4.4,11.3-10.5,11.3c-5.9,0-10.7-5.1-10.7-11.5v-0.2
	c0-6.2,4.4-11.3,10.5-11.3c5.9,0,10.7,5.1,10.7,11.5V72.8z M313,72.8c0,6.2-4.4,11.3-10.5,11.3c-5.9,0-10.7-5.1-10.7-11.5v-0.2
	c0-6.2,4.4-11.3,10.5-11.3c5.9,0,10.7,5.1,10.7,11.5V72.8z M437.5,42.8h6.2c5.9,0,8.9,2,8.9,5.7v0.2c0,3.7-2.9,5.7-8.8,5.7h-6.3
	c-3.2,0-5.8-2.6-5.8-5.8C431.7,45.4,434.3,42.8,437.5,42.8z M454.7,77.9c0,3.6-3.1,6.1-9.2,6.1h-8.1c-3.2,0-5.8-2.6-5.8-5.8v-0.7
	c0-3.2,2.6-5.8,5.8-5.8h8.2c6.1,0,9,2.5,9,6.1V77.9z M526,72.8c0,6.2-4.4,11.3-10.5,11.3c-5.9,0-10.7-5.1-10.7-11.5v-0.2
	c0-6.2,4.4-11.3,10.5-11.3c5.9,0,10.7,5.1,10.7,11.5V72.8z M580.4,91c-3.4,0-6.2-2.5-6.2-6.3v-0.2c0-4,3-7.3,8.3-7.3
	c1.1,0,2.2,0.1,3.3,0.3c1.7,0.3,2.9,1.8,2.9,3.5C588.7,87.2,585.1,91,580.4,91z M706.9,72.7c0,6.5-4.6,11.7-10.8,11.7
	c-6.2,0-10.8-5.1-10.8-11.7v-0.2c0-6.5,4.6-11.7,10.8-11.7c6.2,0,10.8,5.2,10.8,11.7V72.7z"/>
</svg>
